<mxfile host="app.diagrams.net" modified="2024-07-02T06:38:48.505Z" agent="Mozilla/5.0 (Windows NT 10.0; Win64; x64) AppleWebKit/537.36 (KHTML, like Gecko) Chrome/126.0.0.0 Safari/537.36" version="24.6.4" etag="7c1CtV4kMEGrzf4TFakn" type="github">
  <diagram name="Page-1" id="-Y4Rx1jMadyu7E1gZ2UR">
    <mxGraphModel>
      <root>
        <mxCell id="0" />
        <mxCell id="1" parent="0" />
      </root>
    </mxGraphModel>
  </diagram>
</mxfile>
